M48
INCH
T1C0.0118
T2C0.0197
T3C0.0197
T4C0.0236
T5C0.0260
T6C0.0330
T7C0.0394
T8C0.0570
T9C0.0591
T10C0.0709
T11C0.0728
T12C0.1051
T13C0.1063
T14C0.1260
%
G90
G05
T1
X2.206Y-8.541
X2.263Y-8.539
X2.264Y-8.265
X2.274Y-7.622
X2.275Y-7.551
X2.275Y-7.688
X2.284Y-2.408
X2.314Y-8.27
X2.348Y-2.41
X2.352Y-8.452
X2.365Y-7.724
X2.397Y-8.276
X2.398Y-7.786
X2.4034Y-4.1564
X2.408Y-2.408
X2.41Y-2.3435
X2.425Y-7.414
X2.426Y-7.611
X2.433Y-6.373
X2.434Y-8.2135
X2.476Y-2.3179
X2.4822Y-4.317
X2.4903Y-5.8196
X2.4903Y-5.7343
X2.4903Y-6.4014
X2.4932Y-7.5219
X2.4939Y-6.4526
X2.4981Y-6.8899
X2.501Y-6.9486
X2.5076Y-3.861
X2.5076Y-3.9172
X2.5158Y-6.373
X2.5334Y-4.155
X2.5334Y-4.317
X2.559Y-3.794
X2.559Y-4.821
X2.559Y-5.995
X2.585Y-3.752
X2.585Y-4.786
X2.585Y-5.963
X2.6362Y-5.9656
X2.6362Y-5.9973
X2.637Y-4.79
X2.637Y-4.822
X2.641Y-3.7556
X2.646Y-3.792
X2.656Y-4.317
X2.657Y-4.237
X2.673Y-8.291
X2.673Y-8.357
X2.676Y-8.422
X2.6879Y-5.528
X2.69Y-7.726
X2.6959Y-6.575
X2.697Y-7.611
X2.697Y-7.675
X2.7Y-7.547
X2.7009Y-3.347
X2.703Y-4.402
X2.731Y-6.498
X2.7313Y-6.427
X2.741Y-2.238
X2.748Y-4.532
X2.748Y-4.647
X2.7499Y-5.527
X2.7509Y-3.482
X2.7509Y-3.597
X2.7509Y-6.71
X2.7529Y-5.668
X2.7529Y-5.783
X2.7559Y-6.825
X2.7609Y-6.575
X2.7659Y-3.347
X2.768Y-4.402
X2.7769Y-7.1918
X2.7909Y-6.71
X2.7909Y-6.825
X2.791Y-7.725
X2.7929Y-5.668
X2.7929Y-5.783
X2.793Y-4.532
X2.793Y-4.647
X2.7959Y-3.482
X2.7959Y-3.597
X2.803Y-2.238
X2.8194Y-5.5291
X2.823Y-8.204
X2.8259Y-3.347
X2.8259Y-6.575
X2.828Y-4.402
X2.832Y-7.672
X2.833Y-7.786
X2.848Y-4.532
X2.848Y-4.647
X2.8501Y-5.1763
X2.8505Y-4.237
X2.8505Y-4.318
X2.8509Y-3.482
X2.8509Y-3.597
X2.8509Y-6.71
X2.8509Y-6.825
X2.8529Y-5.668
X2.8529Y-5.783
X2.8529Y-7.1333
X2.861Y-6.324
X2.8649Y-4.1359
X2.8844Y-5.5291
X2.8869Y-7.0009
X2.8869Y-7.0658
X2.8884Y-6.575
X2.8904Y-3.348
X2.8909Y-3.482
X2.8909Y-3.597
X2.8909Y-6.71
X2.8909Y-6.825
X2.8919Y-7.1973
X2.892Y-7.3385
X2.8926Y-4.402
X2.8929Y-5.668
X2.8929Y-5.783
X2.8929Y-7.266
X2.893Y-4.532
X2.893Y-4.647
X2.8939Y-7.394
X2.8999Y-4.836
X2.8999Y-4.9605
X2.8999Y-5.021
X2.8999Y-5.212
X2.9Y-4.1745
X2.9Y-5.1575
X2.901Y-3.7854
X2.901Y-3.9778
X2.901Y-4.1078
X2.904Y-6.2965
X2.904Y-6.35
X2.9043Y-5.089
X2.9048Y-5.9727
X2.905Y-6.158
X2.906Y-4.0428
X2.906Y-6.1216
X2.9085Y-6.228
X2.9208Y-6.428
X2.9208Y-6.501
X2.933Y-3.946
X2.9499Y-3.48
X2.9499Y-3.54
X2.9509Y-3.347
X2.9509Y-6.575
X2.9509Y-6.7049
X2.9509Y-6.765
X2.9519Y-5.6629
X2.9519Y-5.725
X2.9529Y-5.528
X2.9529Y-7.0009
X2.9529Y-7.1973
X2.953Y-4.402
X2.953Y-4.528
X2.953Y-4.59
X2.959Y-7.3385
X2.959Y-7.3995
X2.963Y-4.1735
X2.964Y-4.833
X2.9649Y-5.021
X2.965Y-5.1585
X2.965Y-8.164
X2.9654Y-5.089
X2.9659Y-5.212
X2.966Y-3.7854
X2.966Y-3.9778
X2.966Y-4.1078
X2.9669Y-8.3119
X2.9693Y-5.9727
X2.9695Y-6.228
X2.97Y-6.158
X2.97Y-6.2965
X2.97Y-6.35
X2.978Y-3.4438
X2.9819Y-3.622
X2.9819Y-3.672
X2.9819Y-3.724
X2.983Y-4.666
X2.983Y-4.716
X2.983Y-4.768
X2.9849Y-6.843
X2.9849Y-6.893
X2.9849Y-6.945
X2.9859Y-5.803
X2.9859Y-5.853
X2.9859Y-5.905
X2.989Y-3.3814
X2.99Y-4.219
X2.9906Y-4.4868
X2.992Y-5.268
X2.9929Y-7.0853
X2.9939Y-5.533
X2.995Y-4.398
X2.995Y-4.4332
X2.996Y-6.6117
X2.9969Y-6.575
X2.997Y-3.346
X2.9978Y-5.6228
X2.998Y-6.413
X2.9989Y-6.663
X3.0008Y-4.0448
X3.002Y-7.2214
X3.0024Y-4.1056
X3.0039Y-5.164
X3.005Y-3.868
X3.007Y-5.003
X3.007Y-5.5717
X3.0079Y-7.043
X3.01Y-6.048
X3.012Y-6.148
X3.013Y-3.969
X3.0155Y-6.3035
X3.026Y-6.001
X3.046Y-3.803
X3.047Y-4.352
X3.0471Y-3.3161
X3.0489Y-6.533
X3.0509Y-7.051
X3.06Y-3.834
X3.06Y-4.868
X3.06Y-6.008
X3.153Y-2.154
X3.1724Y-8.3415
X3.21Y-2.133
X3.21Y-2.174
X3.212Y-8.174
X3.239Y-8.258
X3.268Y-2.154
X3.365Y-2.134
X3.366Y-2.174
X3.4196Y-7.437
X3.473Y-2.152
X3.474Y-3.4674
X3.4786Y-7.4364
X3.48Y-4.536
X3.48Y-7.085
X3.481Y-5.261
X3.483Y-3.77
X3.484Y-3.622
X3.484Y-3.693
X3.484Y-3.868
X3.484Y-4.911
X3.484Y-6.049
X3.485Y-4.661
X3.486Y-3.341
X3.486Y-4.727
X3.486Y-4.792
X3.49Y-4.379
X3.49Y-5.831
X3.49Y-5.95
X3.49Y-6.55
X3.49Y-6.715
X3.491Y-5.893
X3.4967Y-5.6407
X3.4978Y-6.6812
X3.498Y-5.507
X3.499Y-5.673
X3.5Y-6.795
X3.5Y-6.85
X3.5Y-6.895
X3.5Y-6.945
X3.5Y-6.99
X3.502Y-3.483
X3.502Y-4.5124
X3.535Y-6.81
X3.536Y-4.573
X3.536Y-4.634
X3.536Y-5.769
X3.536Y-6.7495
X3.537Y-3.526
X3.537Y-5.706
X3.539Y-3.587
X3.544Y-5.104
X3.545Y-4.916
X3.545Y-5.008
X3.545Y-5.221
X3.545Y-6.525
X3.545Y-7.395
X3.546Y-3.303
X3.547Y-3.964
X3.547Y-4.06
X3.547Y-6.145
X3.547Y-7.182
X3.547Y-7.23
X3.547Y-7.279
X3.548Y-3.872
X3.548Y-4.176
X3.548Y-4.347
X3.548Y-6.03
X3.548Y-6.357
X3.553Y-6.241
X3.555Y-7.455
X3.556Y-5.485
X3.5709Y-7.0769
X3.591Y-3.595
X3.591Y-5.775
X3.592Y-4.638
X3.593Y-5.702
X3.593Y-6.859
X3.594Y-4.916
X3.594Y-5.221
X3.594Y-5.838
X3.594Y-6.029
X3.594Y-6.742
X3.595Y-5.105
X3.595Y-6.815
X3.595Y-7.395
X3.596Y-3.872
X3.596Y-4.176
X3.596Y-4.565
X3.596Y-4.683
X3.596Y-5.008
X3.596Y-6.241
X3.597Y-3.521
X3.597Y-3.637
X3.597Y-3.964
X3.597Y-4.06
X3.597Y-6.145
X3.597Y-6.357
X3.601Y-3.436
X3.6099Y-6.678
X3.61Y-6.525
X3.611Y-6.5885
X3.613Y-3.302
X3.613Y-3.3675
X3.614Y-4.345
X3.614Y-4.4125
X3.621Y-5.486
X3.621Y-5.5475
X3.621Y-7.229
X3.621Y-7.278
X3.622Y-5.057
X3.622Y-5.636
X3.622Y-7.182
X3.623Y-4.012
X3.623Y-6.194
X3.623Y-7.5145
X3.625Y-7.455
X3.627Y-4.487
X3.629Y-3.595
X3.63Y-4.638
X3.631Y-5.775
X3.631Y-6.815
X3.64Y-5.841
X3.641Y-5.701
X3.642Y-6.742
X3.642Y-6.858
X3.645Y-3.637
X3.645Y-4.682
X3.646Y-3.521
X3.646Y-4.566
X3.647Y-6.145
X3.647Y-6.241
X3.647Y-6.357
X3.648Y-4.916
X3.648Y-5.008
X3.648Y-5.105
X3.648Y-5.221
X3.648Y-6.03
X3.649Y-3.872
X3.649Y-3.964
X3.649Y-4.061
X3.649Y-4.176
X3.65Y-7.395
X3.669Y-6.815
X3.67Y-4.638
X3.671Y-3.595
X3.671Y-5.775
X3.6729Y-7.0769
X3.68Y-6.525
X3.684Y-3.303
X3.686Y-5.485
X3.687Y-2.329
X3.687Y-4.346
X3.695Y-7.395
X3.6965Y-6.75
X3.697Y-5.105
X3.697Y-5.221
X3.697Y-5.709
X3.697Y-6.03
X3.697Y-6.24
X3.697Y-6.357
X3.698Y-3.529
X3.698Y-4.176
X3.698Y-4.573
X3.698Y-5.008
X3.698Y-6.145
X3.698Y-7.182
X3.698Y-7.229
X3.698Y-7.278
X3.699Y-4.916
X3.7Y-3.963
X3.7Y-4.062
X3.701Y-3.872
X3.719Y-3.685
X3.719Y-3.736
X3.719Y-3.785
X3.72Y-3.638
X3.72Y-4.684
X3.72Y-4.731
X3.72Y-4.832
X3.72Y-5.818
X3.72Y-6.857
X3.72Y-6.907
X3.72Y-6.955
X3.72Y-7.005
X3.721Y-4.784
X3.721Y-5.965
X3.727Y-3.437
X3.75Y-6.525
X3.751Y-5.484
X3.751Y-5.637
X3.752Y-3.303
X3.752Y-4.344
X3.755Y-6.346
X3.76Y-4.492
X3.76Y-5.2
X3.76Y-6.65
X3.7615Y-6.75
X3.7625Y-3.529
X3.7625Y-4.574
X3.763Y-5.708
X3.821Y-6.347
X3.821Y-6.4085
X3.822Y-4.2195
X3.825Y-5.199
X3.825Y-5.264
X3.835Y-3.636
X3.835Y-3.686
X3.835Y-3.736
X3.835Y-3.786
X3.835Y-6.86
X3.835Y-6.905
X3.835Y-6.955
X3.835Y-7.005
X3.836Y-5.818
X3.836Y-5.867
X3.836Y-5.916
X3.836Y-5.964
X3.837Y-4.683
X3.837Y-4.731
X3.837Y-4.782
X3.837Y-4.832
X3.888Y-6.348
X3.954Y-3.563
X3.955Y-5.758
X3.956Y-6.7905
X3.957Y-4.608
X4.145Y-2.079
X4.171Y-2.136
X4.173Y-2.099
X4.1805Y-6.0124
X4.1995Y-3.852
X4.222Y-2.057
X4.232Y-4.856
X4.24Y-7.01
X4.302Y-2.057
X4.38Y-5.47
X4.38Y-5.505
X4.387Y-3.298
X4.387Y-3.33
X4.436Y-5.505
X4.437Y-5.47
X4.441Y-3.33
X4.443Y-3.297
X4.494Y-5.47
X4.494Y-5.505
X4.499Y-3.297
X4.499Y-3.33
X4.8872Y-3.1201
X4.9294Y-3.1393
X4.983Y-3.1623
X5.0053Y-3.1847
X5.0157Y-3.0863
X5.051Y-3.085
X5.0511Y-3.0489
X5.143Y-3.409
X5.17Y-3.433
X5.211Y-4.16
X5.211Y-4.217
X5.261Y-3.517
X5.261Y-4.161
X5.261Y-4.218
X5.265Y-2.908
X5.3Y-2.853
X5.301Y-2.96
X5.311Y-4.16
X5.311Y-4.217
X5.322Y-3.64
X5.322Y-3.706
X5.338Y-2.907
X5.361Y-4.161
X5.361Y-4.218
X5.39Y-3.6455
X5.41Y-4.16
X5.411Y-4.218
X5.423Y-3.153
X5.425Y-3.0968
X5.426Y-2.998
X5.43Y-3.602
X5.461Y-3.644
X5.461Y-4.16
X5.461Y-4.218
X5.488Y-3.0968
X5.488Y-3.1904
X5.4882Y-2.9977
X5.4955Y-3.603
X5.511Y-4.16
X5.512Y-3.75
X5.512Y-4.218
X5.528Y-3.6455
X5.555Y-2.998
X5.562Y-4.16
X5.562Y-4.218
X5.564Y-3.4835
X5.62Y-2.998
X5.621Y-3.096
X5.622Y-3.2199
X5.644Y-2.242
X5.743Y-2.373
X5.744Y-2.724
X5.744Y-2.783
X5.874Y-2.493
X5.896Y-2.356
X5.896Y-2.45
X5.898Y-2.908
X5.937Y-2.852
X5.9445Y-2.559
X5.945Y-2.403
X5.9884Y-3.0841
X5.99Y-2.355
X5.992Y-2.448
X6.005Y-3.052
X6.008Y-2.493
X6.014Y-2.9514
X6.057Y-2.521
X6.0652Y-3.086
X6.088Y-3.055
X6.091Y-3.18
X6.0921Y-2.9438
X6.108Y-2.374
X6.159Y-3.086
X6.159Y-3.148
X6.249Y-2.828
X6.253Y-2.413
X6.254Y-2.476
X6.254Y-2.543
X6.254Y-2.711
X6.2597Y-2.163
X6.294Y-2.888
X6.301Y-2.677
X6.301Y-2.712
X6.333Y-2.657
X6.333Y-2.712
X6.367Y-2.657
X6.367Y-2.712
X6.39Y-3.2586
X6.392Y-3.15
X6.393Y-3.014
X6.402Y-2.677
X6.402Y-2.712
X6.425Y-2.163
X6.458Y-3.015
X6.458Y-3.15
X6.459Y-3.2314
X6.473Y-2.164
X6.484Y-2.405
X6.519Y-2.163
X6.521Y-2.371
X6.521Y-3.014
X6.522Y-3.15
X6.522Y-3.2037
X6.523Y-2.436
X6.559Y-2.405
X6.585Y-3.013
X6.722Y-2.304
X6.785Y-2.498
X6.846Y-2.4305
X6.854Y-2.228
X6.9028Y-2.3444
X6.915Y-2.138
X6.915Y-2.199
X6.921Y-2.512
X6.922Y-2.476
X6.922Y-2.545
X6.954Y-2.476
X6.954Y-2.512
X6.954Y-2.545
X6.985Y-2.107
X6.999Y-2.486
X7.0Y-2.535
X7.003Y-2.144
X7.003Y-2.194
X7.024Y-2.106
X7.116Y-2.49
X7.117Y-2.534
X7.12Y-2.146
X7.12Y-2.193
X7.232Y-3.072
X7.237Y-2.199
X7.237Y-2.502
X7.264Y-2.868
X7.279Y-2.384
X7.32Y-2.199
X7.32Y-2.502
X7.326Y-3.072
X7.358Y-2.868
X7.422Y-3.002
X7.422Y-3.072
X7.452Y-2.868
X7.452Y-3.4284
X7.4528Y-3.15
X7.4589Y-2.2449
X7.4589Y-2.277
X7.4589Y-2.309
X7.4843Y-3.4284
X7.486Y-3.15
X7.516Y-3.084
X7.548Y-3.086
X7.553Y-2.122
X7.595Y-2.349
X7.595Y-2.417
X7.616Y-2.122
X7.674Y-3.002
X7.674Y-3.072
X7.696Y-2.091
X7.704Y-2.868
X7.779Y-2.35
X7.78Y-2.418
X7.803Y-2.8599
X7.827Y-2.091
X7.831Y-2.9649
X7.859Y-2.122
X7.862Y-2.863
X7.862Y-3.002
X7.862Y-3.072
X7.8632Y-2.8014
X7.909Y-2.167
X7.909Y-2.208
X7.937Y-2.187
X7.964Y-2.166
X7.965Y-2.209
X7.98Y-2.35
X7.9808Y-2.4183
X8.006Y-3.198
X8.006Y-3.26
X8.019Y-2.976
X8.038Y-2.946
X8.054Y-3.141
X8.0695Y-3.26
X8.076Y-3.3496
X8.1599Y-2.7639
X8.192Y-3.198
X8.196Y-3.26
X8.213Y-2.949
X8.228Y-3.085
X8.24Y-3.0453
X8.25Y-2.9508
X8.26Y-3.26
X8.262Y-3.196
X8.266Y-3.137
X8.273Y-3.083
X8.3032Y-3.103
X8.323Y-2.6044
X8.325Y-3.26
X8.325Y-3.3503
X8.3347Y-2.949
X8.3662Y-2.9508
X8.375Y-3.108
X8.382Y-3.3759
X8.383Y-3.258
X8.391Y-3.137
X8.427Y-3.4604
X8.4475Y-3.196
X8.448Y-3.258
X8.456Y-3.4344
X8.46Y-3.109
X8.492Y-3.086
X8.518Y-3.405
X8.525Y-3.086
X8.5541Y-2.8721
X8.556Y-3.072
X8.586Y-3.408
X8.62Y-3.206
X8.683Y-2.856
X8.71Y-3.206
X8.7171Y-2.8581
X8.775Y-2.872
X8.776Y-3.072
X8.782Y-3.198
X8.782Y-3.26
X8.808Y-2.862
X8.8387Y-3.0789
X8.839Y-2.9331
X8.872Y-3.076
X8.932Y-3.083
X8.964Y-3.081
X8.966Y-3.416
X8.996Y-2.867
X8.996Y-3.072
X9.3705Y-3.197
X9.371Y-3.263
X9.4743Y-3.034
X9.475Y-3.412
X9.5644Y-3.0134
X9.619Y-2.913
X9.629Y-3.103
X9.63Y-3.0626
X9.688Y-2.913
X9.688Y-2.9735
X9.7335Y-3.209
X9.7955Y-3.209
X9.854Y-2.913
X9.854Y-2.9735
X9.893Y-3.103
X9.896Y-3.063
X9.92Y-2.912
X9.926Y-3.042
X10.051Y-3.418
X10.149Y-3.154
X10.15Y-3.083
X10.1819Y-2.7636
X10.218Y-2.7636
X10.2197Y-2.6044
X10.253Y-2.769
X10.265Y-2.6044
X10.307Y-2.604
X10.364Y-2.787
X10.364Y-2.852
X10.365Y-2.63
X10.41Y-3.416
X10.427Y-2.787
X10.427Y-2.852
X10.428Y-2.658
X10.49Y-2.787
X10.49Y-2.851
X10.491Y-2.6854
X10.52Y-4.16
X10.5207Y-3.595
X10.521Y-4.217
X10.554Y-2.787
X10.555Y-2.7111
X10.556Y-2.852
X10.5666Y-2.091
X10.571Y-4.159
X10.571Y-4.218
X10.605Y-2.7366
X10.6106Y-2.17
X10.6116Y-2.21
X10.6122Y-3.486
X10.621Y-4.158
X10.621Y-4.218
X10.6376Y-2.231
X10.6412Y-3.665
X10.6412Y-3.73
X10.6442Y-3.46
X10.6452Y-3.594
X10.671Y-4.218
X10.672Y-4.159
X10.6812Y-3.695
X10.7052Y-3.556
X10.721Y-4.159
X10.721Y-4.216
X10.7421Y-2.7679
X10.7442Y-3.5472
X10.747Y-2.696
X10.771Y-4.158
X10.772Y-4.218
X10.7802Y-3.598
X10.781Y-2.708
X10.81Y-2.661
X10.8112Y-3.73
X10.821Y-4.158
X10.8212Y-3.772
X10.822Y-4.217
X10.859Y-3.411
X10.859Y-3.553
X10.86Y-2.894
X10.871Y-4.158
X10.872Y-4.218
X10.886Y-2.517
X10.886Y-2.5835
X10.887Y-2.75
X10.937Y-2.892
X10.961Y-2.976
X10.964Y-2.751
X11.039Y-2.872
X11.039Y-2.9335
X11.285Y-2.97
X11.286Y-2.8968
X11.349Y-2.8968
X11.35Y-2.971
X11.412Y-2.9005
X11.412Y-2.971
X11.474Y-2.9005
X11.475Y-2.97
X11.513Y-2.522
X11.5446Y-2.156
X11.5492Y-2.5225
X11.581Y-2.525
X11.6016Y-2.136
X11.6026Y-2.174
X11.613Y-2.525
X11.6596Y-2.154
X11.839Y-2.523
X11.909Y-3.733
X11.9295Y-6.977
X11.942Y-4.784
X11.9425Y-5.963
X11.9758Y-2.1742
X11.992Y-2.115
X12.059Y-2.145
X12.0884Y-2.251
X12.109Y-2.49
X12.112Y-3.988
X12.112Y-5.027
X12.113Y-6.185
X12.116Y-2.302
X12.117Y-2.202
X12.117Y-7.191
X12.179Y-6.608
X12.184Y-4.432
X12.236Y-3.3455
X12.236Y-3.408
X12.24Y-4.803
X12.24Y-4.853
X12.24Y-4.899
X12.24Y-4.948
X12.24Y-5.931
X12.24Y-5.979
X12.24Y-6.026
X12.24Y-6.076
X12.24Y-7.031
X12.241Y-3.854
X12.241Y-3.904
X12.241Y-6.982
X12.241Y-7.081
X12.241Y-7.127
X12.242Y-3.757
X12.242Y-3.807
X12.254Y-4.3705
X12.254Y-4.431
X12.2542Y-6.547
X12.255Y-5.503
X12.255Y-6.608
X12.256Y-5.565
X12.261Y-5.159
X12.261Y-7.334
X12.262Y-4.114
X12.305Y-6.278
X12.307Y-3.409
X12.313Y-5.058
X12.314Y-6.184
X12.316Y-4.014
X12.317Y-7.239
X12.321Y-6.609
X12.322Y-4.434
X12.323Y-5.285
X12.323Y-5.566
X12.324Y-7.464
X12.325Y-6.411
X12.326Y-4.239
X12.375Y-4.626
X12.375Y-4.72
X12.376Y-3.367
X12.376Y-3.483
X12.376Y-3.581
X12.376Y-3.674
X12.376Y-4.529
X12.377Y-4.413
X12.377Y-6.713
X12.378Y-5.057
X12.378Y-5.542
X12.378Y-5.658
X12.378Y-5.754
X12.378Y-6.597
X12.378Y-6.809
X12.378Y-7.028
X12.379Y-5.848
X12.379Y-6.184
X12.379Y-6.983
X12.38Y-5.931
X12.38Y-5.979
X12.38Y-6.027
X12.38Y-6.075
X12.38Y-6.914
X12.38Y-7.08
X12.38Y-7.127
X12.381Y-4.803
X12.381Y-4.851
X12.381Y-4.9
X12.381Y-4.949
X12.382Y-3.757
X12.382Y-3.807
X12.382Y-3.854
X12.382Y-3.903
X12.383Y-4.014
X12.383Y-7.239
X12.387Y-5.283
X12.387Y-6.41
X12.39Y-7.462
X12.392Y-4.238
X12.404Y-4.993
X12.406Y-6.119
X12.408Y-3.948
X12.424Y-4.627
X12.425Y-3.581
X12.425Y-4.719
X12.426Y-3.367
X12.426Y-3.484
X12.426Y-3.674
X12.426Y-4.412
X12.426Y-4.529
X12.426Y-5.542
X12.427Y-5.658
X12.427Y-5.753
X12.427Y-5.847
X12.427Y-6.597
X12.428Y-6.713
X12.428Y-6.809
X12.429Y-6.914
X12.431Y-3.905
X12.431Y-4.021
X12.433Y-5.066
X12.433Y-6.192
X12.433Y-7.107
X12.434Y-4.95
X12.434Y-6.055
X12.434Y-7.245
X12.437Y-4.089
X12.4371Y-6.264
X12.443Y-4.993
X12.446Y-6.12
X12.448Y-3.947
X12.452Y-3.533
X12.452Y-4.579
X12.453Y-5.707
X12.454Y-6.761
X12.4555Y-5.132
X12.4595Y-7.309
X12.463Y-6.412
X12.464Y-5.2195
X12.464Y-7.3995
X12.464Y-7.465
X12.465Y-5.285
X12.465Y-6.3465
X12.467Y-4.239
X12.469Y-4.175
X12.477Y-4.412
X12.478Y-3.366
X12.478Y-3.483
X12.478Y-3.581
X12.478Y-4.53
X12.479Y-3.673
X12.479Y-4.626
X12.479Y-4.719
X12.479Y-5.543
X12.479Y-5.658
X12.479Y-5.753
X12.479Y-6.713
X12.479Y-6.809
X12.479Y-6.914
X12.48Y-3.906
X12.48Y-4.022
X12.48Y-5.847
X12.48Y-6.598
X12.481Y-7.246
X12.482Y-4.95
X12.482Y-5.066
X12.482Y-6.054
X12.482Y-6.192
X12.482Y-7.107
X12.484Y-4.993
X12.485Y-6.12
X12.487Y-3.947
X12.525Y-5.754
X12.526Y-4.719
X12.526Y-5.543
X12.526Y-5.846
X12.527Y-3.482
X12.527Y-4.627
X12.527Y-6.597
X12.528Y-3.367
X12.528Y-3.581
X12.528Y-3.674
X12.528Y-4.413
X12.528Y-4.529
X12.528Y-5.658
X12.528Y-6.713
X12.529Y-6.809
X12.529Y-6.914
X12.53Y-5.282
X12.53Y-7.463
X12.531Y-6.409
X12.533Y-4.238
X12.537Y-4.998
X12.538Y-5.058
X12.539Y-6.125
X12.539Y-6.186
X12.539Y-7.179
X12.54Y-3.955
X12.541Y-4.015
X12.541Y-7.241
X12.554Y-4.788
X12.554Y-4.873
X12.554Y-4.949
X12.555Y-5.49
X12.556Y-6.264
X12.557Y-6.225
X12.559Y-6.968
X12.559Y-7.133
X12.56Y-5.997
X12.56Y-6.068
X12.56Y-7.06
X12.5605Y-5.095
X12.5605Y-5.127
X12.5605Y-5.941
X12.5605Y-7.2747
X12.5605Y-7.3088
X12.5681Y-4.0885
X12.577Y-4.048
X12.588Y-3.675
X12.588Y-3.765
X12.591Y-3.864
X12.592Y-3.943
X12.593Y-3.324
X12.602Y-2.35
X12.603Y-2.3
X12.604Y-2.25
X12.638Y-2.109
X12.647Y-2.407
X12.704Y-2.108
X12.713Y-2.409
X12.766Y-2.167
X12.782Y-2.405
X12.782Y-2.45
X12.806Y-2.168
X12.938Y-2.049
X12.967Y-2.473
X12.975Y-2.049
X13.01Y-2.049
X13.016Y-6.934
X13.021Y-5.894
X13.024Y-6.414
X13.026Y-4.776
X13.026Y-5.284
X13.028Y-3.732
X13.028Y-4.24
X13.0534Y-6.7736
X13.0556Y-5.6674
X13.057Y-3.473
X13.061Y-3.524
X13.0686Y-6.324
X13.07Y-5.85
X13.07Y-6.928
X13.074Y-4.153
X13.074Y-7.3259
X13.075Y-3.675
X13.075Y-5.1968
X13.0782Y-4.1002
X13.079Y-6.2726
X13.08Y-6.366
X13.08Y-7.378
X13.08Y-7.417
X13.082Y-5.044
X13.082Y-5.236
X13.0836Y-5.1456
X13.084Y-4.0
X13.084Y-4.192
X13.088Y-6.994
X13.088Y-7.044
X13.088Y-7.096
X13.088Y-7.148
X13.092Y-5.942
X13.092Y-5.992
X13.092Y-6.044
X13.092Y-6.094
X13.094Y-4.812
X13.094Y-4.862
X13.094Y-4.914
X13.094Y-4.964
X13.096Y-3.768
X13.096Y-3.818
X13.096Y-3.87
X13.096Y-3.92
X13.108Y-6.666
X13.11Y-5.614
X13.11Y-6.602
X13.11Y-7.222
X13.11Y-7.282
X13.113Y-5.551
X13.115Y-4.414
X13.115Y-4.474
X13.116Y-6.1735
X13.116Y-6.236
X13.118Y-6.3585
X13.12Y-3.375
X13.12Y-3.4376
X13.12Y-4.0
X13.12Y-5.046
X13.12Y-5.106
X13.122Y-4.06
X13.122Y-4.1925
X13.122Y-5.2345
X13.123Y-7.4165
X13.1359Y-5.6579
X13.161Y-5.941
X13.162Y-6.019
X13.168Y-7.162
X13.168Y-7.278
X13.17Y-2.482
X13.17Y-3.505
X13.17Y-3.57
X13.17Y-6.73
X13.1705Y-3.639
X13.1705Y-6.807
X13.172Y-5.614
X13.172Y-6.892
X13.173Y-5.551
X13.174Y-5.674
X13.174Y-6.114
X13.174Y-6.232
X13.174Y-6.666
X13.1745Y-5.826
X13.175Y-4.545
X13.175Y-6.602
X13.176Y-5.75
X13.1765Y-4.661
X13.1765Y-4.724
X13.1795Y-6.36
X13.18Y-3.756
X13.18Y-3.94
X13.18Y-4.055
X13.18Y-4.414
X13.18Y-4.474
X13.18Y-4.985
X13.18Y-5.105
X13.181Y-3.838
X13.1835Y-5.234
X13.184Y-3.374
X13.185Y-3.4376
X13.1855Y-4.192
X13.187Y-7.4185
X13.2Y-2.33
X13.2Y-5.044
X13.202Y-4.0
X13.2116Y-3.4961
X13.214Y-5.653
X13.214Y-7.162
X13.214Y-7.278
X13.22Y-4.985
X13.22Y-5.105
X13.22Y-6.114
X13.222Y-6.232
X13.222Y-6.778
X13.225Y-3.94
X13.225Y-4.055
X13.236Y-5.685
X13.24Y-2.483
X13.244Y-6.36
X13.25Y-4.19
X13.25Y-5.235
X13.251Y-7.4185
X13.252Y-5.7555
X13.252Y-6.8215
X13.259Y-4.6465
X13.261Y-3.568
X13.264Y-7.162
X13.264Y-7.28
X13.27Y-6.114
X13.27Y-6.23
X13.275Y-3.94
X13.275Y-4.055
X13.275Y-4.985
X13.275Y-5.105
X13.289Y-7.379
X13.296Y-5.044
X13.298Y-4.0
X13.3064Y-3.0562
X13.31Y-4.19
X13.31Y-6.366
X13.31Y-7.162
X13.31Y-7.278
X13.315Y-5.105
X13.315Y-5.235
X13.3166Y-3.4926
X13.318Y-6.114
X13.318Y-6.23
X13.318Y-6.8215
X13.32Y-3.94
X13.32Y-4.055
X13.32Y-4.985
X13.3258Y-2.483
X13.326Y-5.7555
X13.328Y-4.6455
X13.33Y-3.5675
X13.335Y-3.2925
X13.365Y-2.368
X13.372Y-7.1015
X13.3738Y-2.107
X13.376Y-6.366
X13.378Y-4.1925
X13.38Y-5.235
X13.387Y-3.0941
X13.389Y-4.789
X13.4Y-3.2925
X13.404Y-6.864
X13.4076Y-5.3916
X13.418Y-6.366
X13.422Y-4.192
X13.425Y-5.428
X13.4354Y-6.027
X13.439Y-7.1025
X13.4437Y-3.6623
X13.451Y-7.342
X13.4525Y-7.861
X13.4772Y-7.298
X13.4775Y-7.233
X13.48Y-3.7006
X13.4866Y-5.372
X13.4991Y-3.6454
X13.5045Y-7.8615
X13.511Y-3.2984
X13.514Y-5.422
X13.552Y-7.338
X13.567Y-7.292
X13.572Y-5.705
X13.5771Y-7.8905
X13.59Y-7.395
X13.6Y-7.1685
X13.6124Y-7.8896
X13.628Y-6.543
X13.634Y-4.321
X13.666Y-7.927
X13.685Y-4.199
X13.685Y-4.235
X13.705Y-5.7077
X13.706Y-5.6447
X13.741Y-4.132
X13.741Y-7.008
X13.753Y-7.887
X13.766Y-7.224
X13.767Y-4.187
X13.767Y-5.8317
X13.767Y-7.29
X13.7675Y-7.158
X13.77Y-5.7087
X13.803Y-7.88
X13.8082Y-5.7198
X13.81Y-6.12
X13.814Y-5.821
X13.847Y-5.5837
X13.853Y-7.339
X13.865Y-6.01
X13.866Y-7.012
X13.884Y-7.396
X13.92Y-7.8935
X13.959Y-3.734
X13.961Y-3.799
X13.978Y-7.9264
X13.988Y-3.866
X14.1175Y-7.856
X14.137Y-3.957
X14.155Y-2.901
X14.155Y-3.017
X14.1828Y-8.064
X14.187Y-3.957
X14.197Y-2.901
X14.197Y-3.017
X14.232Y-3.957
X14.2611Y-7.145
X14.2781Y-7.362
X14.31Y-2.49
X14.3153Y-5.72
X14.324Y-5.5797
X14.327Y-5.8997
X14.3295Y-5.9617
X14.3431Y-7.423
X14.384Y-3.907
X14.406Y-3.952
X14.441Y-2.901
X14.441Y-3.017
X14.456Y-3.952
X14.483Y-2.901
X14.483Y-3.017
X14.4991Y-7.1635
X14.4993Y-2.4896
X14.501Y-3.952
X14.5374Y-7.2056
X14.576Y-3.925
X14.641Y-3.861
X14.662Y-3.795
X14.664Y-3.732
T2
X2.3519Y-2.2098
X3.006Y-2.059
X3.069Y-2.059
X3.287Y-2.371
X3.844Y-8.709
X3.8442Y-8.622
X3.847Y-9.298
X3.848Y-9.183
X3.8716Y-8.664
X3.8767Y-9.244
X3.8988Y-8.709
X3.899Y-8.622
X3.9093Y-9.298
X3.9103Y-9.183
X3.9264Y-8.664
X3.939Y-9.244
X3.9536Y-8.709
X3.9538Y-8.622
X3.9715Y-9.298
X3.9725Y-9.183
X3.9812Y-8.664
X4.0012Y-9.244
X4.0084Y-8.709
X4.0086Y-8.622
X4.0337Y-9.298
X4.0347Y-9.183
X4.036Y-8.664
X4.0632Y-8.709
X4.0634Y-8.622
X4.0635Y-9.244
X4.096Y-9.298
X4.097Y-9.183
X5.095Y-6.79
X5.095Y-6.85
X5.095Y-6.905
X5.095Y-6.97
X5.1Y-5.8
X5.1Y-5.865
X5.1Y-5.92
X5.1Y-5.98
X5.1Y-6.3
X5.1Y-6.36
X5.1Y-6.415
X5.1Y-6.48
X5.1Y-6.545
X5.1Y-6.605
X5.1Y-6.66
X5.1Y-6.725
X5.105Y-5.305
X5.105Y-5.37
X5.105Y-5.425
X5.105Y-5.485
X5.105Y-5.56
X5.105Y-5.625
X5.105Y-5.68
X5.105Y-5.74
X5.105Y-6.05
X5.105Y-6.11
X5.105Y-6.165
X5.105Y-6.23
X5.143Y-4.134
X5.143Y-4.211
X5.144Y-4.286
X5.196Y-4.286
X5.248Y-4.286
X5.285Y-5.305
X5.285Y-5.36
X5.285Y-5.425
X5.285Y-5.485
X5.29Y-5.565
X5.29Y-5.62
X5.29Y-5.685
X5.29Y-5.745
X5.29Y-5.8
X5.29Y-5.855
X5.29Y-5.92
X5.29Y-5.98
X5.29Y-6.05
X5.29Y-6.105
X5.29Y-6.17
X5.29Y-6.23
X5.29Y-6.3
X5.29Y-6.355
X5.29Y-6.42
X5.29Y-6.48
X5.29Y-6.545
X5.29Y-6.6
X5.29Y-6.665
X5.29Y-6.725
X5.295Y-6.79
X5.295Y-6.845
X5.295Y-6.91
X5.295Y-6.97
X5.3Y-4.286
X5.349Y-4.387
X5.349Y-4.456
X5.349Y-4.525
X5.349Y-4.594
X5.352Y-4.286
X5.365Y-5.355
X5.385Y-6.85
X5.415Y-5.43
X5.422Y-4.38
X5.422Y-4.452
X5.445Y-6.76
X5.453Y-4.301
X5.47Y-5.51
X5.489Y-4.38
X5.5Y-6.675
X5.52Y-5.585
X5.521Y-4.301
X5.538Y-4.452
X5.554Y-4.38
X5.56Y-6.58
X5.57Y-5.66
X5.62Y-6.49
X5.625Y-5.74
X5.657Y-4.452
X5.675Y-5.815
X5.675Y-6.405
X5.73Y-5.895
X5.73Y-6.32
X6.356Y-7.3847
X9.56Y-7.429
X10.375Y-6.37
X10.4007Y-5.8628
X10.43Y-6.45
X10.4557Y-5.7778
X10.457Y-4.437
X10.485Y-6.53
X10.5157Y-5.6878
X10.523Y-4.371
X10.535Y-6.605
X10.555Y-4.437
X10.558Y-4.307
X10.5757Y-5.5928
X10.585Y-6.68
X10.594Y-4.371
X10.624Y-4.307
X10.6307Y-5.5078
X10.64Y-6.76
X10.66Y-4.441
X10.661Y-4.371
X10.69Y-6.835
X10.6907Y-5.4178
X10.729Y-4.377
X10.729Y-4.46
X10.729Y-4.543
X10.729Y-4.626
X10.73Y-4.71
X10.73Y-4.793
X10.735Y-4.299
X10.775Y-5.295
X10.775Y-5.35
X10.775Y-5.41
X10.775Y-5.47
X10.775Y-5.545
X10.775Y-5.6
X10.775Y-5.66
X10.775Y-5.72
X10.775Y-5.785
X10.775Y-5.84
X10.775Y-5.9
X10.775Y-5.96
X10.775Y-6.03
X10.775Y-6.085
X10.775Y-6.145
X10.775Y-6.205
X10.775Y-6.285
X10.775Y-6.34
X10.775Y-6.4
X10.775Y-6.46
X10.775Y-6.52
X10.775Y-6.575
X10.775Y-6.635
X10.775Y-6.695
X10.775Y-6.775
X10.775Y-6.83
X10.775Y-6.89
X10.775Y-6.95
X10.796Y-4.299
X10.857Y-4.299
X10.918Y-4.297
X10.919Y-4.145
X10.919Y-4.222
X10.985Y-5.295
X10.985Y-5.36
X10.985Y-5.415
X10.985Y-5.475
X10.985Y-5.54
X10.985Y-5.605
X10.985Y-5.66
X10.985Y-5.72
X10.985Y-5.785
X10.985Y-5.85
X10.985Y-5.905
X10.985Y-5.965
X10.985Y-6.035
X10.985Y-6.1
X10.985Y-6.155
X10.985Y-6.215
X10.985Y-6.285
X10.985Y-6.345
X10.985Y-6.4
X10.985Y-6.465
X10.985Y-6.525
X10.985Y-6.585
X10.985Y-6.64
X10.985Y-6.705
X10.985Y-6.78
X10.985Y-6.84
X10.985Y-6.895
X10.985Y-6.96
X11.594Y-5.437
X11.65Y-5.407
X11.702Y-5.437
X13.278Y-9.151
X13.278Y-9.233
X13.321Y-9.277
X13.328Y-8.712
X13.328Y-8.802
X13.36Y-8.757
X13.393Y-8.712
X13.393Y-8.802
X13.41Y-9.277
X13.425Y-8.757
X13.458Y-8.712
X13.458Y-8.802
X13.49Y-8.757
X13.499Y-9.277
X13.523Y-8.712
X13.523Y-8.802
X13.555Y-8.757
X13.588Y-9.277
X13.59Y-8.712
X13.59Y-8.802
T3
X5.6613Y-4.701
X5.6613Y-6.1055
X5.689Y-4.6342
X5.689Y-4.7678
X5.689Y-6.0387
X5.689Y-6.1723
X5.7558Y-4.6065
X5.7558Y-4.7955
X5.7558Y-6.011
X5.7558Y-6.2
X5.8226Y-4.6342
X5.8226Y-4.7678
X5.8226Y-6.0387
X5.8226Y-6.1723
X5.8503Y-4.701
X5.8503Y-6.1055
X10.2355Y-4.701
X10.2355Y-6.1055
X10.2632Y-4.6342
X10.2632Y-4.7678
X10.2632Y-6.0387
X10.2632Y-6.1723
X10.33Y-4.6065
X10.33Y-4.7955
X10.33Y-6.011
X10.33Y-6.2
X10.3968Y-4.6342
X10.3968Y-4.7678
X10.3968Y-6.0387
X10.3968Y-6.1723
X10.4245Y-4.701
X10.4245Y-6.1055
X14.597Y-2.4996
X14.597Y-2.8165
X14.694Y-2.5006
X14.694Y-2.8175
T5
X3.0664Y-7.709
X3.3616Y-7.709
X7.4244Y-9.078
X7.7196Y-9.078
X13.216Y-7.5577
X13.216Y-7.853
T6
X6.9863Y-2.97
X9.2737Y-2.97
T7
X13.9238Y-2.3118
X13.9783Y-2.2
X14.0328Y-2.3118
X14.0873Y-2.2
X14.1419Y-2.3118
X14.1964Y-2.2
X14.2509Y-2.3118
X14.3055Y-2.2
X14.36Y-2.3118
T8
X4.311Y-7.788
X4.311Y-8.588
X5.811Y-7.788
X5.811Y-8.588
X6.165Y-7.788
X6.165Y-8.588
X7.665Y-7.788
X7.665Y-8.588
X8.01Y-8.031
X8.01Y-8.831
X10.08Y-8.031
X10.08Y-8.831
X10.47Y-8.036
X10.47Y-8.836
X12.54Y-8.036
X12.54Y-8.836
T9
X4.434Y-6.773
X4.434Y-6.973
X4.434Y-7.073
X4.434Y-7.173
X4.4342Y-5.7662
X4.4342Y-5.9662
X4.4342Y-6.0662
X4.4342Y-6.1662
X4.4348Y-4.5979
X4.4348Y-4.7979
X4.4348Y-4.8979
X4.4348Y-4.9979
X4.4398Y-3.5929
X4.4398Y-3.7929
X4.4398Y-3.8929
X4.4398Y-3.9929
X11.6154Y-3.59
X11.6154Y-3.69
X11.6154Y-3.79
X11.6154Y-3.99
X11.6154Y-4.595
X11.6154Y-4.695
X11.6154Y-4.795
X11.6154Y-4.995
X11.6154Y-5.765
X11.6154Y-5.865
X11.6154Y-5.965
X11.6154Y-6.165
X11.6154Y-6.7718
X11.6154Y-6.8718
X11.6154Y-6.9718
X11.6154Y-7.1718
T10
X3.675Y-2.154
X3.8719Y-2.154
X10.9111Y-2.155
X11.108Y-2.155
X14.18Y-3.4424
X14.18Y-3.6393
X14.45Y-3.439
X14.45Y-3.6359
T11
X2.235Y-8.9999
X2.235Y-9.231
X2.4661Y-8.9999
X2.4661Y-9.231
X4.3054Y-9.0044
X4.3054Y-9.2356
X4.5366Y-9.0044
X4.5366Y-9.2356
X12.8554Y-9.0054
X12.8554Y-9.2366
X13.0866Y-9.0054
X13.0866Y-9.2366
X14.369Y-8.938
X14.369Y-9.1691
X14.4273Y-4.6931
X14.4273Y-4.9242
X14.4284Y-6.3291
X14.4284Y-6.5602
X14.6001Y-8.938
X14.6001Y-9.1691
X14.6584Y-4.6931
X14.6584Y-4.9242
X14.6596Y-6.3291
X14.6596Y-6.5602
T12
X4.1212Y-3.3879
X4.1212Y-5.1989
X4.122Y-5.5645
X4.122Y-7.3755
X11.9293Y-3.388
X11.9293Y-5.199
X11.9293Y-5.5645
X11.9293Y-7.3755
T13
X5.0383Y-2.6665
X5.3217Y-2.6665
T14
X5.7558Y-4.701
X5.7558Y-6.1055
X10.33Y-4.701
X10.33Y-6.1055
X13.6497Y-2.3
X14.634Y-2.3
T4
G00X2.1799Y-2.1163
M15
G01X2.1799Y-2.0927
M16
G05
G00X2.1799Y-2.2659
M15
G01X2.1799Y-2.2423
M16
G05
G00X2.5201Y-2.1163
M15
G01X2.5201Y-2.0927
M16
G05
G00X2.5201Y-2.2659
M15
G01X2.5201Y-2.2423
M16
G05
G00X4.9143Y-2.4086
M15
G01X4.9143Y-2.4519
M16
G05
G00X5.4457Y-2.4086
M15
G01X5.4457Y-2.4519
M16
G05
T7
G00X5.1603Y-2.5228
M15
G01X5.1997Y-2.5228
M16
G05
M30
